# xmcd CD database file
#
# Track frame offsets:
#	150
#	31943
#	86216
#	134125
#	153819
#	202803
#	263592
#
# Disc length: 3856 seconds
#
# Revision: 0
# Processed by: cddbd v1.5.1PL0 Copyright (c) Steve Scherf et al.
# Submitted via: CDex 1.50
#
DISCID=550f0e07
DTITLE=Kirk Lightsey - Nights of Bradley's
DYEAR=2004
DGENRE=Jazz
TTITLE0=I Told You So
TTITLE1=Speak No Evil
TTITLE2=A Time for Love
TTITLE3=Giant Steps
TTITLE4=From Dream to Dream
TTITLE5=In Your Own Sweet Way
TTITLE6=Oleo
EXTD=YEAR: 2004
EXTT0=
EXTT1=
EXTT2=
EXTT3=
EXTT4=
EXTT5=
EXTT6=
PLAYORDER=
